<?xml version="1.0" standalone="no"?>
<!DOCTYPE svg PUBLIC "-//W3C//DTD SVG 20010904//EN" "http://www.w3.org/TR/2001/REC-SVG-20010904/DTD/svg10.dtd">
<svg version="1.0" xmlns="http://www.w3.org/2000/svg" width="49.000000pt" height="94.000000pt" viewBox="0 0 49.000000 94.000000" preserveAspectRatio="xMidYMid meet">

    <g transform="translate(0.000000,94.000000) scale(0.100000,-0.100000)" fill="#000000" stroke="none">
        <path d="M179 907 c-48 -32 -68 -91 -48 -143 50 -130 237 -99 239 39 0 52 -22
91 -64 111 -47 22 -87 20 -127 -7z" />
        <path d="M190 621 c-50 -16 -87 -40 -123 -80 -102 -113 -63 -289 103 -463 l79
-83 69 71 c151 156 203 312 145 429 -22 43 -62 84 -105 106 -42 21 -131 32
-168 20z m104 -125 c67 -28 97 -111 62 -174 -32 -59 -114 -79 -174 -42 -81 50
-75 171 11 214 40 19 59 20 101 2z" />
    </g>
</svg>
